<?xml version="1.0" encoding="iso-8859-1"?>
<!-- Generator: Adobe Illustrator 19.0.0, SVG Export Plug-In . SVG Version: 6.00 Build 0)  -->
<svg xmlns="http://www.w3.org/2000/svg" xmlns:xlink="http://www.w3.org/1999/xlink" version="1.1" id="Layer_1" x="0px" y="0px" viewBox="0 0 497 497" style="enable-background:new 0 0 497 497;" xml:space="preserve" width="512" height="512">
<g>
	<path style="fill:#4695FD;" d="M174.187,0H95.534C85.121,0,76.67,8.451,76.67,18.864v168.29c0,10.867,4.319,21.29,12.001,28.972   l55.666,55.676h29.85L248.5,119.319L174.187,0z"/>
	<path style="fill:#4695FD;" d="M401.466,0h-78.652L248.5,119.319l74.313,152.482h29.85l55.666-55.676   c7.682-7.682,12.001-18.105,12.001-28.972V18.864C420.33,8.451,411.879,0,401.466,0z"/>
	<path style="fill:#0D84FD;" d="M105.474,232.932l38.863,38.87h29.85l52.235-107.181   C177.499,170.568,134.503,196.01,105.474,232.932z"/>
	<path style="fill:#0D84FD;" d="M270.578,164.621l52.235,107.181h29.85l38.863-38.87   C362.497,196.01,319.501,170.568,270.578,164.621z"/>
	<rect x="174.187" style="fill:#FF89CA;" width="148.627" height="271.802"/>
	<path style="fill:#FA4AAD;" d="M322.813,179.166c-22.7-10.204-47.855-15.888-74.313-15.888s-51.613,5.684-74.313,15.888v92.636   h148.627V179.166z"/>
	<circle style="fill:#A4BFD6;" cx="248.5" cy="345.139" r="151.861"/>
	<circle style="fill:#D3E9F4;" cx="248.5" cy="345.139" r="109.458"/>
	<g>
		<path style="fill:#A4BFD6;" d="M248.967,273.076c21.618,0,43.424,13.605,43.424,38.579c0,40.442-57.588,53.675-57.588,70.634    v1.678h48.829c4.66,0,8.759,5.777,8.759,12.486c0,6.709-4.099,12.86-8.759,12.86h-66.347c-5.218,0-12.674-3.541-12.674-8.946    v-18.077c0-29.26,58.707-46.033,58.707-69.703c0-5.963-3.728-13.232-14.165-13.232c-7.455,0-13.978,3.727-13.978,13.977    c0,5.405-5.777,10.624-15.282,10.624c-7.455,0-13.046-3.355-13.046-15.096C206.846,286.122,227.72,273.076,248.967,273.076z"/>
	</g>
</g>















</svg>
