<?xml version="1.0" encoding="iso-8859-1"?>
<!-- Generator: Adobe Illustrator 19.0.0, SVG Export Plug-In . SVG Version: 6.00 Build 0)  -->
<svg xmlns="http://www.w3.org/2000/svg" xmlns:xlink="http://www.w3.org/1999/xlink" version="1.1" id="Layer_1" x="0px" y="0px" viewBox="0 0 497 497" style="enable-background:new 0 0 497 497;" xml:space="preserve" width="512" height="512">
<g>
	<polygon style="fill:#4695FD;" points="410.433,0 86.567,0 86.567,144.169 86.567,144.169 86.567,144.169 248.5,161.023    410.433,144.169 410.432,144.169 410.433,144.169  "/>
	<polygon style="fill:#0D84FD;" points="86.567,114.169 86.567,144.169 86.567,144.169 248.5,161.023 410.433,144.169    410.433,114.169  "/>
	<rect x="138.085" style="fill:#76E7E7;" width="47.451" height="144.169"/>
	<rect x="311.464" style="fill:#76E7E7;" width="47.451" height="144.169"/>
	<rect x="230.223" y="172.51" style="fill:#FDB058;" width="36.553" height="89.538"/>
	<circle style="fill:#FB8554;" cx="248.5" cy="365.985" r="131.015"/>
	<circle style="fill:#F9A357;" cx="248.5" cy="365.985" r="96.643"/>
	<g>
		<path style="fill:#FB8554;" d="M263.935,390.561v-3.277c0-11.555-7.071-13.797-16.556-13.797c-5.864,0-7.761-5.174-7.761-10.348    s1.897-10.348,7.761-10.348c6.553,0,13.452-0.863,13.452-14.832c0-10.003-5.691-12.417-12.762-12.417    c-8.451,0-12.762,2.069-12.762,8.796c0,5.864-2.587,9.83-12.59,9.83c-12.417,0-13.969-2.587-13.969-10.865    c0-13.453,9.658-30.871,39.321-30.871c21.903,0,38.46,7.933,38.46,31.216c0,12.59-4.657,24.317-13.28,28.284    c10.175,3.794,17.591,11.382,17.591,25.352v3.277c0,28.284-19.488,38.976-43.633,38.976c-29.664,0-41.046-18.109-41.046-32.595    c0-7.761,3.277-9.831,12.762-9.831c11.038,0,13.797,2.415,13.797,8.968c0,8.106,7.588,10.003,15.349,10.003    C259.796,406.083,263.935,401.771,263.935,390.561z"/>
	</g>
	<rect x="311.464" y="114.169" style="fill:#34BCCF;" width="47.451" height="30"/>
	<rect x="138.085" y="114.169" style="fill:#34BCCF;" width="47.451" height="30"/>
	<path style="fill:#F9A357;" d="M410.433,144.17H86.567c-14.952,0-27.072,12.121-27.072,27.072v0   c0,14.952,12.121,27.072,27.072,27.072h323.867c14.952,0,27.072-12.121,27.072-27.072v0   C437.505,156.29,425.385,144.17,410.433,144.17z"/>
</g>















</svg>
