<?xml version="1.0" encoding="iso-8859-1"?>
<!-- Generator: Adobe Illustrator 19.0.0, SVG Export Plug-In . SVG Version: 6.00 Build 0)  -->
<svg version="1.1" id="Capa_1" xmlns="http://www.w3.org/2000/svg" xmlns:xlink="http://www.w3.org/1999/xlink" x="0px" y="0px"
	 viewBox="0 0 456 456" style="enable-background:new 0 0 456 456;" xml:space="preserve">
<path style="fill:#DC4D41;" d="M136,408H88L64,288v-16h72v16V408z"/>
<path style="fill:#EA6B65;" d="M184,328h-48v-48h56L184,328z"/>
<path style="fill:#DC4D41;" d="M72,272H48c-26.51,0-48-21.49-48-48v-16c0-26.51,21.49-48,48-48h24V272z"/>
<path style="fill:#C7463B;" d="M432,240h-16v-48h16c13.255,0,24,10.745,24,24C456,229.255,445.255,240,432,240z"/>
<path style="fill:#EBEBEB;" d="M64,144h152v144H64V144z"/>
<path style="fill:#DC4D41;" d="M392,376l-104-64l-80-24V144l80-24l104-64V376z"/>
<g>
	<path style="fill:#B9B9B9;" d="M96,240c-4.418,0-8-3.582-8-8v-32c0-4.418,3.582-8,8-8s8,3.582,8,8v32
		C104,236.418,100.418,240,96,240z"/>
	<path style="fill:#B9B9B9;" d="M128,240c-4.418,0-8-3.582-8-8v-32c0-4.418,3.582-8,8-8s8,3.582,8,8v32
		C136,236.418,132.418,240,128,240z"/>
	<path style="fill:#B9B9B9;" d="M160,240c-4.418,0-8-3.582-8-8v-32c0-4.418,3.582-8,8-8s8,3.582,8,8v32
		C168,236.418,164.418,240,160,240z"/>
</g>
<path style="fill:#EBEBEB;" d="M408,48L408,48c8.837,0,16,7.163,16,16v304c0,8.837-7.163,16-16,16l0,0c-8.837,0-16-7.163-16-16V64
	C392,55.163,399.163,48,408,48z"/>
<g>
</g>
<g>
</g>
<g>
</g>
<g>
</g>
<g>
</g>
<g>
</g>
<g>
</g>
<g>
</g>
<g>
</g>
<g>
</g>
<g>
</g>
<g>
</g>
<g>
</g>
<g>
</g>
<g>
</g>
</svg>
