<svg height="512pt" viewBox="0 0 512 512.01247" width="512pt" xmlns="http://www.w3.org/2000/svg"><path d="m512.007812 132.425781v344.277344c-.03125 9.738281-7.917968 17.625-17.65625 17.652344h-186.878906c-4.707031.003906-9.214844 1.878906-12.535156 5.210937l-7.238281 7.238282c-3.324219 3.332031-7.832031 5.207031-12.539063 5.207031h-38.308594c-4.707031 0-9.214843-1.875-12.535156-5.207031l-7.238281-7.238282c-3.324219-3.332031-7.832031-5.207031-12.535156-5.210937h-186.882813c-9.738281-.027344-17.6249998-7.914063-17.6523435-17.652344v-344.277344c.0273437-9.738281 7.9140625-17.625 17.6523435-17.65625h476.691406c9.738282.03125 17.625 7.917969 17.65625 17.65625zm0 0" fill="#2980ba"/><path d="m256.007812 114.769531v397.242188h-19.15625c-4.707031 0-9.214843-1.875-12.535156-5.207031l-7.238281-7.238282c-3.324219-3.332031-7.832031-5.207031-12.535156-5.210937h-186.882813c-9.738281-.027344-17.6249998-7.914063-17.6523435-17.652344v-344.277344c.0273437-9.738281 7.9140625-17.625 17.6523435-17.65625zm0 0" fill="#2fa8cc"/><path d="m476.695312 86.523438v361.488281c.035157 2.664062-1.148437 5.195312-3.210937 6.878906-2.0625 1.6875-4.78125 2.339844-7.382813 1.773437-38.75-8.210937-171.960937-33.015624-203.386718 8.121094-1.613282 2.0625-4.089844 3.265625-6.707032 3.265625-2.621093 0-5.09375-1.203125-6.710937-3.265625-31.425781-41.136718-164.632813-16.332031-203.386719-8.121094-2.601562.566407-5.320312-.085937-7.382812-1.773437-2.0625-1.683594-3.246094-4.214844-3.210938-6.878906v-361.488281c-.03125-4.148438 2.839844-7.75 6.886719-8.652344 29.355469-6.402344 59.070313-11.03125 88.980469-13.859375h249.644531c29.914063 2.828125 59.625 7.457031 88.980469 13.859375 4.050781.902344 6.917968 4.503906 6.886718 8.652344zm0 0" fill="#f5efca"/><path d="m476.695312 86.523438v361.488281c.035157 2.664062-1.148437 5.195312-3.210937 6.878906-2.0625 1.6875-4.78125 2.339844-7.382813 1.773437-38.75-8.210937-171.960937-33.015624-203.386718 8.121094-1.578125 2.109375-4.074219 3.324219-6.707032 3.269532v-404.042969h124.820313c29.914063 2.828125 59.625 7.457031 88.980469 13.859375 4.050781.902344 6.917968 4.503906 6.886718 8.652344zm0 0" fill="#f9eab0"/><path d="m423.730469 201.015625c.308593 13.542969-4.773438 26.65625-14.125 36.457031l-.085938.089844-8.210937 26.484375c-2.96875 9.433594-9.15625 17.523437-17.480469 22.863281l-28.070313 18.449219c-3.757812 2.554687-7.144531 5.613281-10.0625 9.089844l-10.417968 12.890625c-3.617188 4.445312-8.050782 8.164062-13.0625 10.945312-7.261719 3.953125-15.394532 6.015625-23.660156 6.003906-9.445313.019532-18.6875-2.742187-26.570313-7.945312l-15.976563-10.503906-15.980468 10.503906c-7.882813 5.203125-17.125 7.964844-26.570313 7.945312-8.289062 0-16.453125-2.0625-23.746093-6.003906-4.96875-2.808594-9.371094-6.519531-12.976563-10.945312l-10.503906-12.890625c-2.878907-3.519531-6.269531-6.582031-10.0625-9.089844l-27.984375-18.449219c-8.324219-5.339844-14.511719-13.429687-17.480469-22.863281l-8.207031-26.484375-.089844-.089844c-9.351562-9.800781-14.429688-22.914062-14.125-36.457031-.207031-12.09375 3.785156-23.886719 11.300781-33.367187-3.0625-7.046876-4.625-14.652344-4.589843-22.332032-1.207032-19.191406 9.730468-37.085937 27.363281-44.757812-.382813-2.570313-.589844-5.167969-.617188-7.769532-.847656-18.339843 10.140625-35.160156 27.277344-41.753906-.285156-1.542968-.433594-3.109375-.441406-4.679687.808593-19.535157 17.273437-34.734375 36.8125-33.984375 3.097656-.027344 6.183593.359375 9.179687 1.148437 6.597656-8.617187 16.867188-13.621093 27.71875-13.5078122 15.398438-.4218748 29.035156 9.8789062 32.839844 24.8046872.429688 2.003906.636719 4.046875.617188 6.09375h.527343c-.019531-2.046875.1875-4.089844.621094-6.09375 3.804687-14.925781 17.4375-25.226562 32.835937-24.8046872 10.851563-.1132808 21.121094 4.8906252 27.71875 13.5078122 2.996094-.789062 6.085938-1.175781 9.179688-1.148437 19.542969-.75 36.003906 14.449218 36.8125 33.984375-.007812 1.570312-.15625 3.136719-.441406 4.679687 17.136718 6.59375 28.125 23.414063 27.277344 41.753906-.027344 2.601563-.234376 5.199219-.617188 7.769532 17.632812 7.671875 28.574219 25.566406 27.363281 44.757812.035157 7.679688-1.527343 15.285156-4.589843 22.332032 7.515624 9.480468 11.507812 21.273437 11.300781 33.367187zm0 0" fill="#fb7b76"/><path d="m423.730469 201.015625c.308593 13.542969-4.773438 26.65625-14.125 36.457031l-.085938.089844-8.210937 26.484375c-2.96875 9.433594-9.15625 17.523437-17.480469 22.863281l-28.070313 18.449219c-3.757812 2.554687-7.144531 5.613281-10.0625 9.089844l-10.417968 12.890625c-3.617188 4.445312-8.050782 8.164062-13.0625 10.945312-7.261719 3.953125-15.394532 6.015625-23.660156 6.003906-9.445313.019532-18.6875-2.742187-26.570313-7.945312l-15.976563-10.503906v-294.929688h.261719c-.019531-2.046875.1875-4.089844.621094-6.09375 3.804687-14.925781 17.4375-25.226562 32.835937-24.8046872 10.851563-.1132808 21.121094 4.8906252 27.71875 13.5078122 2.996094-.789062 6.085938-1.175781 9.179688-1.148437 19.542969-.75 36.003906 14.449218 36.8125 33.984375-.007812 1.570312-.15625 3.136719-.441406 4.679687 17.136718 6.59375 28.125 23.414063 27.277344 41.753906-.027344 2.601563-.234376 5.199219-.617188 7.769532 17.632812 7.671875 28.574219 25.566406 27.363281 44.757812.035157 7.679688-1.527343 15.285156-4.589843 22.332032 7.515624 9.480468 11.507812 21.273437 11.300781 33.367187zm0 0" fill="#d75e72"/><path d="m218.234375 317.847656c-12.046875.410156-22.878906-7.277344-26.472656-18.78125-3.671875-10.535156-23.835938-16.664062-30.609375-17.984375-4.789063-.917969-7.925782-5.546875-7.007813-10.335937.921875-4.785156 5.546875-7.921875 10.335938-7.003906 3.695312.703124 36.28125 7.523437 43.953125 29.503906.894531 2.765625 2.914062 5.027344 5.558594 6.234375 2.644531 1.210937 5.675781 1.25 8.355468.113281 4.621094-1.371094 9.492188 1.21875 10.933594 5.824219 1.445312 4.601562-1.074219 9.507812-5.652344 11.019531-3.042968.945312-6.210937 1.421875-9.394531 1.410156zm0 0" fill="#d75e72"/><path d="m293.777344 317.847656c-3.183594.011719-6.351563-.464844-9.390625-1.410156-4.578125-1.53125-7.078125-6.457031-5.613281-11.054688 1.464843-4.597656 6.355468-7.167968 10.972656-5.765624 2.671875 1.117187 5.6875 1.0625 8.320312-.148438 2.628906-1.210938 4.628906-3.46875 5.511719-6.226562 7.667969-21.980469 40.253906-28.796876 43.953125-29.503907 4.789062-.917969 9.414062 2.21875 10.335938 7.007813.917968 4.785156-2.21875 9.414062-7.007813 10.332031-6.777344 1.324219-26.933594 7.449219-30.609375 17.984375-3.589844 11.503906-14.425781 19.195312-26.472656 18.785156zm0 0" fill="#fb7b76"/><path d="m293.777344 317.847656c-3.183594.011719-6.351563-.464844-9.390625-1.410156-4.578125-1.53125-7.078125-6.457031-5.613281-11.054688 1.464843-4.597656 6.355468-7.167968 10.972656-5.765624 2.671875 1.117187 5.6875 1.0625 8.320312-.148438 2.628906-1.210938 4.628906-3.46875 5.511719-6.226562 7.667969-21.980469 40.253906-28.796876 43.953125-29.503907 4.789062-.917969 9.414062 2.21875 10.335938 7.007813.917968 4.785156-2.21875 9.414062-7.007813 10.332031-6.777344 1.324219-26.933594 7.449219-30.609375 17.984375-3.589844 11.503906-14.425781 19.195312-26.472656 18.785156zm0 0" fill="#fb7b76"/><path d="m166.097656 247.335938c-14.898437-.296876-28.082031-9.722657-33.1875-23.722657-1.621094-4.597656.789063-9.640625 5.386719-11.261719 4.597656-1.625 9.640625.785157 11.265625 5.382813 2.542969 6.996094 9.09375 11.730469 16.535156 11.949219 4.875 0 8.828125 3.953125 8.828125 8.828125s-3.953125 8.828125-8.828125 8.828125zm0 0" fill="#d75e72"/><path d="m345.917969 247.335938c-4.878907 0-8.828125-3.953126-8.828125-8.828126s3.949218-8.828124 8.828125-8.828124c7.398437-.265626 13.914062-4.957032 16.511719-11.890626 1.605468-4.605468 6.640624-7.035156 11.246093-5.425781 4.601563 1.605469 7.03125 6.640625 5.425781 11.246094-5.101562 14-18.285156 23.425781-33.183593 23.726563zm0 0" fill="#fb7b76"/><path d="m238.351562 238.355469c-4.875 0-8.828124-3.949219-8.828124-8.824219 0-10.878906-1.15625-11.050781-15.296876-13.128906-7.738281-.960938-15.371093-2.628906-22.804687-4.980469-18.972656-6.242187-31.984375-23.722656-32.519531-43.683594-.015625-4.878906 3.925781-8.839843 8.800781-8.855469 4.875-.015624 8.839844 3.921876 8.855469 8.796876.523437 12.378906 8.671875 23.136718 20.449218 26.992187 6.453126 2.019531 13.078126 3.445313 19.792969 4.261719 14.234375 2.097656 30.378907 4.472656 30.378907 30.597656 0 4.875-3.953126 8.824219-8.828126 8.824219zm0 0" fill="#d75e72"/><path d="m238.351562 88.289062c-4.875 0-8.828124-3.953124-8.828124-8.828124 0-8.335938-17.507813-8.828126-17.683594-8.828126-4.875-.007812-8.824219-3.96875-8.8125-8.84375.007812-4.875 3.964844-8.820312 8.839844-8.8125 12.210937 0 35.3125 5.535157 35.3125 26.484376 0 4.875-3.953126 8.828124-8.828126 8.828124zm0 0" fill="#d75e72"/><path d="m273.660156 238.355469c-4.875 0-8.828125-3.949219-8.828125-8.824219 0-26.125 16.144531-28.5 30.382813-30.597656 6.710937-.816406 13.335937-2.242188 19.792968-4.261719 11.777344-3.855469 19.925782-14.617187 20.445313-27 .070313-4.828125 4-8.710937 8.828125-8.726563h.070312c4.839844.019532 8.753907 3.949219 8.757813 8.792969-.535156 19.960938-13.546875 37.441407-32.515625 43.683594-7.433594 2.351563-15.070312 4.019531-22.808594 4.980469-14.140625 2.078125-15.296875 2.25-15.296875 13.128906 0 4.875-3.953125 8.824219-8.828125 8.824219zm0 0" fill="#fb7b76"/><path d="m273.660156 88.289062c-4.875 0-8.828125-3.953124-8.828125-8.828124 0-20.949219 23.101563-26.484376 35.3125-26.484376 4.875-.003906 8.832031 3.941407 8.839844 8.816407s-3.9375 8.832031-8.816406 8.839843c-.335938.003907-17.679688.53125-17.679688 8.828126 0 4.875-3.953125 8.828124-8.828125 8.828124zm0 0" fill="#fb7b76"/><path d="m211.867188 167.738281c-4.875.003907-8.832032-3.941406-8.839844-8.816406-.007813-4.875 3.941406-8.832031 8.816406-8.839844.335938 0 17.679688-.53125 17.679688-8.828125 0-4.875 3.953124-8.828125 8.828124-8.828125s8.828126 3.953125 8.828126 8.828125c0 20.949219-23.101563 26.484375-35.3125 26.484375zm0 0" fill="#d75e72"/><path d="m300.144531 167.738281c-12.210937 0-35.3125-5.535156-35.3125-26.484375 0-4.875 3.953125-8.828125 8.828125-8.828125s8.828125 3.953125 8.828125 8.828125c0 8.335938 17.507813 8.828125 17.6875 8.828125 4.875.007813 8.820313 3.964844 8.8125 8.84375-.011719 4.875-3.96875 8.820313-8.84375 8.8125zm0 0" fill="#fb7b76"/><g fill="#e4c05c"><path d="m79.453125 344.289062h-8.828125c-4.875 0-8.824219-3.953124-8.824219-8.828124s3.949219-8.828126 8.824219-8.828126h8.828125c4.875 0 8.828125 3.953126 8.828125 8.828126s-3.953125 8.828124-8.828125 8.828124zm0 0"/><path d="m141.246094 344.289062h-26.480469c-4.875 0-8.828125-3.953124-8.828125-8.828124s3.953125-8.828126 8.828125-8.828126h26.480469c4.875 0 8.828125 3.953126 8.828125 8.828126s-3.953125 8.828124-8.828125 8.828124zm0 0"/><path d="m123.59375 379.597656h-52.96875c-4.875 0-8.824219-3.953125-8.824219-8.828125s3.949219-8.824219 8.824219-8.824219h52.96875c4.875 0 8.828125 3.949219 8.828125 8.824219s-3.953125 8.828125-8.828125 8.828125zm0 0"/><path d="m185.386719 379.597656h-26.484375c-4.875 0-8.828125-3.953125-8.828125-8.828125s3.953125-8.824219 8.828125-8.824219h26.484375c4.875 0 8.828125 3.949219 8.828125 8.824219s-3.953125 8.828125-8.828125 8.828125zm0 0"/><path d="m88.28125 414.910156h-17.65625c-4.875 0-8.824219-3.953125-8.824219-8.828125s3.949219-8.828125 8.824219-8.828125h17.65625c4.875 0 8.828125 3.953125 8.828125 8.828125s-3.953125 8.828125-8.828125 8.828125zm0 0"/><path d="m211.867188 414.910156h-88.273438c-4.875 0-8.828125-3.953125-8.828125-8.828125s3.953125-8.828125 8.828125-8.828125h88.273438c4.875 0 8.828124 3.953125 8.828124 8.828125s-3.953124 8.828125-8.828124 8.828125zm0 0"/><path d="m441.386719 344.289062h-8.828125c-4.875 0-8.828125-3.953124-8.828125-8.828124s3.953125-8.828126 8.828125-8.828126h8.828125c4.875 0 8.828125 3.953126 8.828125 8.828126s-3.953125 8.828124-8.828125 8.828124zm0 0"/><path d="m397.246094 344.289062h-26.480469c-4.875 0-8.828125-3.953124-8.828125-8.828124s3.953125-8.828126 8.828125-8.828126h26.480469c4.875 0 8.828125 3.953126 8.828125 8.828126s-3.953125 8.828124-8.828125 8.828124zm0 0"/><path d="m441.386719 379.597656h-52.964844c-4.878906 0-8.828125-3.953125-8.828125-8.828125s3.949219-8.824219 8.828125-8.824219h52.964844c4.875 0 8.828125 3.949219 8.828125 8.824219s-3.953125 8.828125-8.828125 8.828125zm0 0"/><path d="m353.109375 379.597656h-26.484375c-4.875 0-8.824219-3.953125-8.824219-8.828125s3.949219-8.824219 8.824219-8.824219h26.484375c4.875 0 8.828125 3.949219 8.828125 8.824219s-3.953125 8.828125-8.828125 8.828125zm0 0"/><path d="m441.386719 414.910156h-17.65625c-4.875 0-8.828125-3.953125-8.828125-8.828125s3.953125-8.828125 8.828125-8.828125h17.65625c4.875 0 8.828125 3.953125 8.828125 8.828125s-3.953125 8.828125-8.828125 8.828125zm0 0"/><path d="m388.421875 414.910156h-88.277344c-4.875 0-8.828125-3.953125-8.828125-8.828125s3.953125-8.828125 8.828125-8.828125h88.277344c4.875 0 8.824219 3.953125 8.824219 8.828125s-3.949219 8.828125-8.824219 8.828125zm0 0"/></g></svg>